<svg width="80" height="80" viewBox="0 0 80 80" fill="none" xmlns="http://www.w3.org/2000/svg">
<path d="M6.67334 40.0066C6.67722 56.4046 18.6013 70.3667 34.7967 72.9366V49.6399H26.34V40.0066H34.8067V32.6733C34.4282 29.1984 35.6151 25.7353 38.0455 23.2231C40.4759 20.7108 43.8979 19.41 47.3833 19.6733C49.8851 19.7137 52.3806 19.9365 54.85 20.3399V28.5366H50.6367C49.1862 28.3466 47.7279 28.8257 46.6726 29.8388C45.6173 30.852 45.0793 32.2896 45.21 33.7466V40.0066H54.4467L52.97 49.6433H45.21V72.9366C62.7249 70.1686 75.007 54.1725 73.1584 36.5369C71.3098 18.9012 55.9776 5.79971 38.2694 6.72387C20.5612 7.64804 6.67615 22.2743 6.67334 40.0066Z" fill="#2E3A59"/>
</svg>
