<svg width="29" height="29" viewBox="0 0 29 29" fill="none" xmlns="http://www.w3.org/2000/svg">
<path fill-rule="evenodd" clip-rule="evenodd" d="M22.0497 20.5383C21.95 20.5405 21.8501 20.5416 21.75 20.5416C14.4092 20.5416 8.45829 14.5907 8.45829 7.24994C8.45829 7.14978 8.4594 7.04985 8.46162 6.95019C6.24959 8.72232 4.83329 11.447 4.83329 14.4999C4.83329 19.8387 9.16121 24.1666 14.5 24.1666C17.5529 24.1666 20.2775 22.7503 22.0497 20.5383ZM23.5215 17.9814C22.945 18.0758 22.3532 18.1249 21.75 18.1249C15.7439 18.1249 10.875 13.256 10.875 7.24994C10.875 6.64668 10.9241 6.05489 11.0185 5.47836C11.1782 4.50395 11.4673 3.57311 11.8677 2.7041C10.8269 2.93533 9.83667 3.30079 8.91604 3.78139C5.05339 5.79779 2.41663 9.84093 2.41663 14.4999C2.41663 21.1733 7.82652 26.5832 14.5 26.5832C19.1589 26.5832 23.202 23.9465 25.2185 20.0839C25.6991 19.1632 26.0645 18.173 26.2957 17.1322C25.4267 17.5326 24.4959 17.8217 23.5215 17.9814Z" fill="#2E3A59"/>
</svg>
