<svg width="44" height="44" viewBox="0 0 44 44" fill="none" xmlns="http://www.w3.org/2000/svg">
<path d="M22.0037 38.5752C17.4937 38.5752 16.962 38.5513 15.202 38.4743C13.8295 38.4292 12.4748 38.1502 11.1962 37.6493C8.9839 36.7884 7.23459 35.0384 6.3745 32.8258C5.89289 31.5426 5.63313 30.1867 5.60633 28.8163C5.50366 27.06 5.50366 26.4843 5.50366 22.0092C5.50366 17.4863 5.5275 16.9583 5.60633 15.2075C5.63371 13.8389 5.89347 12.485 6.3745 11.2035C7.23365 8.98796 8.98581 7.23647 11.2017 6.37816C12.4825 5.89453 13.8368 5.63409 15.2057 5.60816C16.9565 5.50916 17.5322 5.50916 22.0037 5.50916C26.5503 5.50916 27.0728 5.53299 28.8053 5.60816C30.1777 5.63431 31.5356 5.89472 32.8203 6.37816C35.0356 7.23744 36.7874 8.98859 37.6475 11.2035C38.1372 12.5037 38.3984 13.8788 38.4193 15.268C38.522 17.0243 38.522 17.5982 38.522 22.0715C38.522 26.5448 38.4963 27.1315 38.4193 28.8677C38.392 30.2394 38.1317 31.5964 37.6493 32.8808C36.787 35.0949 35.0351 36.8456 32.8203 37.7062C31.5374 38.1868 30.1824 38.4466 28.8127 38.4743C27.0618 38.5752 26.488 38.5752 22.0037 38.5752ZM21.9413 8.41132C17.457 8.41132 16.9913 8.43332 15.2405 8.51216C14.1955 8.526 13.1605 8.71885 12.1807 9.08232C10.7337 9.636 9.58874 10.7763 9.02916 12.221C8.66289 13.2115 8.47001 14.2578 8.459 15.3138C8.36183 17.0903 8.36183 17.556 8.36183 22.0092C8.36183 26.4092 8.37833 26.9427 8.459 28.7082C8.47541 29.7535 8.66817 30.7886 9.02916 31.7698C9.58957 33.2136 10.7343 34.353 12.1807 34.9067C13.1599 35.2725 14.1952 35.4655 15.2405 35.4768C17.0152 35.5795 17.4827 35.5795 21.9413 35.5795C26.4385 35.5795 26.9042 35.5575 28.6403 35.4768C29.6861 35.4641 30.7218 35.2712 31.702 34.9067C33.1402 34.3482 34.2777 33.2114 34.837 31.7735C35.2026 30.7821 35.3954 29.7354 35.4072 28.6788H35.4273C35.5062 26.9262 35.5062 26.4587 35.5062 21.9798C35.5062 17.501 35.486 17.0298 35.4072 15.279C35.3907 14.2348 35.198 13.2009 34.837 12.221C34.279 10.781 33.1413 9.64202 31.702 9.08232C30.722 8.71701 29.6861 8.52411 28.6403 8.51216C26.8675 8.41132 26.4037 8.41132 21.9413 8.41132ZM22.0037 30.4773C18.5753 30.4795 15.4833 28.4162 14.1696 25.2495C12.8559 22.0828 13.5793 18.4366 16.0025 16.0113C18.4256 13.5861 22.0712 12.8595 25.2391 14.1704C28.4069 15.4814 30.4729 18.5716 30.4737 22C30.4686 26.6769 26.6806 30.4682 22.0037 30.4773ZM22.0037 16.4963C18.9661 16.4963 16.5037 18.9588 16.5037 21.9963C16.5037 25.0339 18.9661 27.4963 22.0037 27.4963C25.0412 27.4963 27.5037 25.0339 27.5037 21.9963C27.4966 18.9617 25.0383 16.5034 22.0037 16.4963ZM30.8037 15.1892C29.7136 15.1851 28.8326 14.2992 28.8347 13.2092C28.8367 12.1191 29.7209 11.2365 30.811 11.2365C31.9011 11.2365 32.7853 12.1191 32.7873 13.2092C32.7878 13.7351 32.5789 14.2395 32.2066 14.6111C31.8344 14.9826 31.3296 15.1906 30.8037 15.1892Z" fill="#2E3A59"/>
</svg>
